<svg xmlns="http://www.w3.org/2000/svg" width="356.203" height="100" viewBox="0 0 356.203 100">
  <g id="Logo_ingevec_color" transform="translate(-171.456 -229.433)">
    <path id="Trazado_5" data-name="Trazado 5" d="M251.2,271.849v7.045h.311a15.751,15.751,0,0,1,6.826-6.4,19.891,19.891,0,0,1,8.635-2.007,23.641,23.641,0,0,1,9.133,1.51,13.831,13.831,0,0,1,5.647,4.218,16.7,16.7,0,0,1,2.868,6.554,41.542,41.542,0,0,1,.826,8.577v31.133h-13.9V293.883c0-4.18-.639-7.3-1.964-9.357-1.283-2.044-3.61-3.072-6.93-3.072-3.793,0-6.521,1.122-8.2,3.376-1.709,2.245-2.588,5.951-2.588,11.1v26.547H237.989V271.849Z" transform="translate(-19.647 -12.122)" fill="#0f284b"/>
    <path id="Trazado_6" data-name="Trazado 6" d="M361.412,326.185a17.061,17.061,0,0,1-3.559,7.3,21.413,21.413,0,0,1-7.943,5.724c-3.438,1.569-8.089,2.349-13.9,2.349a33.3,33.3,0,0,1-7.568-.925,23.943,23.943,0,0,1-7.044-2.888,18.133,18.133,0,0,1-5.309-5.04,14.818,14.818,0,0,1-2.4-7.409H327.52a7.968,7.968,0,0,0,3.8,5.44,13.97,13.97,0,0,0,6.572,1.521c3.907,0,6.779-1.168,8.556-3.528a13.848,13.848,0,0,0,2.587-8.908v-6.645h-.192a13.8,13.8,0,0,1-6.4,5.907,20.681,20.681,0,0,1-8.754,1.909,21.811,21.811,0,0,1-9.794-2,18.3,18.3,0,0,1-6.757-5.479,22.758,22.758,0,0,1-3.865-8.135,37.7,37.7,0,0,1-1.236-9.832,31.354,31.354,0,0,1,1.423-9.444,24.767,24.767,0,0,1,4.151-8.022,19.877,19.877,0,0,1,6.805-5.538,20.443,20.443,0,0,1,9.346-2.056,19.4,19.4,0,0,1,8.775,1.864,14.967,14.967,0,0,1,6.306,6.263h.192v-6.762h13.233v47.377a34.857,34.857,0,0,1-.853,6.961m-19.019-16.834a10.658,10.658,0,0,0,3.7-3.15,13.8,13.8,0,0,0,2.229-4.44,19.03,19.03,0,0,0,.711-5.235,28.092,28.092,0,0,0-.593-5.929,14.317,14.317,0,0,0-1.943-4.946,10.318,10.318,0,0,0-3.6-3.432,11.574,11.574,0,0,0-5.694-1.263,9.833,9.833,0,0,0-8.562,4.351,13.52,13.52,0,0,0-2.062,4.6,22.588,22.588,0,0,0-.638,5.437,27.821,27.821,0,0,0,.541,5.427,15.62,15.62,0,0,0,1.853,4.849,11.067,11.067,0,0,0,3.481,3.521,9.912,9.912,0,0,0,5.387,1.381,11.1,11.1,0,0,0,5.2-1.173" transform="translate(-41.513 -12.122)" fill="#0f284b"/>
    <path id="Trazado_7" data-name="Trazado 7" d="M407.52,310.333c2.063,2,5.077,3.015,9.014,3.015a12.565,12.565,0,0,0,7.232-2.087,9.042,9.042,0,0,0,3.726-4.459H439.7q-2.914,9.091-9.013,13.016a26.346,26.346,0,0,1-14.677,3.917,28.916,28.916,0,0,1-10.748-1.91,22.523,22.523,0,0,1-8.156-5.43,24.506,24.506,0,0,1-5.122-8.42,31.264,31.264,0,0,1-1.8-10.779,29.6,29.6,0,0,1,1.85-10.565,24.784,24.784,0,0,1,5.287-8.467,24.342,24.342,0,0,1,8.183-5.627,26.261,26.261,0,0,1,10.508-2.056,24.012,24.012,0,0,1,11.263,2.5,22.285,22.285,0,0,1,7.9,6.707,27.53,27.53,0,0,1,4.437,9.582,34.745,34.745,0,0,1,.971,11.267h-36.5c.192,4.5,1.349,7.78,3.438,9.8m15.7-26.642q-2.493-2.727-7.611-2.735a12.147,12.147,0,0,0-5.5,1.125,11.387,11.387,0,0,0-3.538,2.781,10.448,10.448,0,0,0-1.87,3.528,16.437,16.437,0,0,0-.617,3.339h22.6a15.837,15.837,0,0,0-3.466-8.039" transform="translate(-64.591 -12.122)" fill="#0f284b"/>
    <path id="Trazado_8" data-name="Trazado 8" d="M476.324,323.047l-17.314-50.626h14.536l10.7,34.561h.192L495.1,272.421h13.829l-17.175,50.626Z" transform="translate(-84.915 -12.694)" fill="#0f284b"/>
    <path id="Trazado_9" data-name="Trazado 9" d="M545.274,310.333c2.089,2,5.1,3.015,9.013,3.015a12.563,12.563,0,0,0,7.251-2.087c2.022-1.417,3.28-2.893,3.726-4.459h12.219q-2.922,9.091-9.014,13.016a26.373,26.373,0,0,1-14.68,3.917,29.037,29.037,0,0,1-10.749-1.91,22.283,22.283,0,0,1-8.13-5.43,24.347,24.347,0,0,1-5.148-8.42,30.787,30.787,0,0,1-1.823-10.779,30.213,30.213,0,0,1,1.87-10.565,25.13,25.13,0,0,1,5.294-8.467,24.36,24.36,0,0,1,8.177-5.627,26.282,26.282,0,0,1,10.51-2.056,24.178,24.178,0,0,1,11.288,2.5,22.406,22.406,0,0,1,7.871,6.707,27.888,27.888,0,0,1,4.436,9.582,35.975,35.975,0,0,1,.972,11.267H541.835c.213,4.5,1.351,7.762,3.439,9.8m15.747-26.642c-1.684-1.817-4.22-2.735-7.611-2.735a12.2,12.2,0,0,0-5.528,1.125,10.769,10.769,0,0,0-3.531,2.781,10.91,10.91,0,0,0-1.876,3.528,20.683,20.683,0,0,0-.639,3.339h22.65a16.919,16.919,0,0,0-3.464-8.039" transform="translate(-105.27 -12.122)" fill="#0f284b"/>
    <path id="Trazado_10" data-name="Trazado 10" d="M631.809,280.957a9.816,9.816,0,0,0-5.6,1.525,11.924,11.924,0,0,0-3.652,3.908,16.145,16.145,0,0,0-2.015,5.283,29.618,29.618,0,0,0-.592,5.719,28.443,28.443,0,0,0,.592,5.58,17.115,17.115,0,0,0,1.923,5.147,10.759,10.759,0,0,0,3.557,3.759,9.754,9.754,0,0,0,5.5,1.471c3.321,0,5.855-.913,7.684-2.782a13.3,13.3,0,0,0,3.366-7.5H656c-.923,6.742-3.557,11.865-7.848,15.382s-9.793,5.283-16.532,5.283a28.03,28.03,0,0,1-10.458-1.91,22.957,22.957,0,0,1-8.041-5.335,24.5,24.5,0,0,1-5.216-8.172,28.6,28.6,0,0,1-1.85-10.427,33.9,33.9,0,0,1,1.73-10.921,23.756,23.756,0,0,1,5.049-8.707,22.972,22.972,0,0,1,8.089-5.726,27.7,27.7,0,0,1,11.009-2.056,32.084,32.084,0,0,1,8.628,1.173,23.337,23.337,0,0,1,7.449,3.569,18.522,18.522,0,0,1,7.659,14.448H642.079q-1.356-8.723-10.27-8.716" transform="translate(-128.337 -12.122)" fill="#0f284b"/>
    <path id="Trazado_11" data-name="Trazado 11" d="M171.456,272.011v10.134l22.318,5.33v35.487h19.039v-50.95Z" transform="translate(0 -12.573)" fill="#0071b7"/>
    <rect id="Rectángulo_6" data-name="Rectángulo 6" width="19.497" height="19.52" transform="translate(193.415 229.433)" fill="#0071b7"/>
  </g>
</svg>
